<?xml version="1.0" standalone="no"?>
<svg xmlns="http://www.w3.org/2000/svg" height="1864pt" preserveAspectRatio="xMidYMid meet" viewBox="0 0 1931 1864" width="1931pt">
  <path d="m9010 18619c-3541-50-5204-255-6220-764-661-331-1076-776-1465-1570-171-348-285-630-625-1535-282-753-393-1040-554-1440-74-184-134-336-132-337 3-3 644-53 682-53 42 0 179 203 414 615 178 310 258 443 374 614 399 593 863 988 1476 1254 403 175 837 278 1430 339 84 9 285 13 610 13 473-1 591-6 950-43l65-7-2-295c-4-631-60-1599-138-2360-311-3041-1059-5428-2338-7460-250-398-514-777-973-1400-409-555-573-793-706-1025-156-273-255-539-288-770-30-213 7-578 86-847 248-850 992-1449 1910-1539 330-32 863 76 1199 243 688 343 1176 1044 1536 2208 302 977 532 2305 748 4320 112 1040 196 1957 381 4140 164 1930 248 2911 300 3500 27 305 63 715 80 910s33 365 36 378l4 22h2120 2120v-27c0-45-38-631-65-1003-73-997-152-1868-365-4040-205-2086-273-2852-345-3850-105-1479-154-2823-117-3200 67-678 197-1171 438-1661 93-188 175-330 277-474 602-853 1510-1346 2641-1435 166-13 639-13 781 0 174 16 318 38 488 76 1026 227 1885 907 2527 1999 99 169 307 589 384 776 336 816 531 1680 571 2521l7 138h-365-366l-5-52c-3-29-10-107-16-173-63-674-302-1254-673-1626-318-319-687-495-1207-576-158-24-517-24-680 0-257 39-431 92-635 193-170 84-293 173-436 314-181 179-289 334-415 595-399 827-510 2104-363 4210 42 604 93 1172 233 2600 212 2150 278 3057 306 4214 6 234 12 426 13 427 3 3 2945-13 3879-21l728-6-6 378c-2 208-9 868-14 1467-6 599-13 1092-16 1095s-596 9-1317 13c-722 4-2088 12-3037 17-1898 12-5087 12-5910 0z" transform="matrix(.1 0 0 -.1 0 1864)" vector-effect="non-scaling-stroke" fill="#808080" stroke="none" stroke-width="2"/>
</svg>
